<?xml version="1.0" encoding="utf-8"?>
<!-- Generator: Adobe Illustrator 26.0.1, SVG Export Plug-In . SVG Version: 6.00 Build 0)  -->
<svg version="1.1" id="Layer_1" xmlns="http://www.w3.org/2000/svg" xmlns:xlink="http://www.w3.org/1999/xlink" x="0px" y="0px"
	 viewBox="0 0 683.6 143.8" style="enable-background:new 0 0 683.6 143.8;" xml:space="preserve">
<style type="text/css">
	.st0{opacity:0.85;fill:#FFFFFF;enable-background:new    ;}
	.st1{opacity:0.85;}
	.st2{fill:#FFFFFF;}
	.st3{fill:none;}
	.st4{fill:url(#SVGID_1_);}
	.st5{fill:url(#SVGID_00000137122815686618769650000009047437546445953421_);}
	.st6{fill:url(#SVGID_00000170963539203169094570000007184871682409824703_);}
	.st7{fill:url(#SVGID_00000169549353698428389090000007910489870824235905_);}
	.st8{fill-rule:evenodd;clip-rule:evenodd;fill:url(#SVGID_00000029754379306852418700000008865188217784465572_);}
</style>
<path class="st0" d="M175.8,111.5h17.6v3.8h-13.2v8.9h12.1v3.7h-12.1v11.8h-4.4V111.5z"/>
<path class="st0" d="M196.3,119.1h4.2v3.5h0.1c0.4-2.3,2.4-3.9,4.7-3.9c0.5,0,1,0.1,1.5,0.2v3.9c-0.6-0.2-1.3-0.3-1.9-0.2
	c-2.7,0-4.4,1.8-4.4,4.8v12.3h-4.2L196.3,119.1z"/>
<path class="st0" d="M207.2,129.4L207.2,129.4c0-6.6,3.9-10.6,9.7-10.6s9.8,4,9.8,10.6l0,0c0,6.6-3.9,10.7-9.8,10.7
	S207.2,136,207.2,129.4z M222.4,129.4L222.4,129.4c0-4.5-2.2-7.1-5.5-7.1s-5.4,2.6-5.4,7.1l0,0c0,4.5,2.2,7.2,5.5,7.2
	S222.4,133.9,222.4,129.4L222.4,129.4z"/>
<path class="st0" d="M229.6,119.1h4.2v3.2h0.1c1-2.3,3.2-3.7,5.7-3.6c2.6-0.2,5,1.5,5.7,4h0.1c1.1-2.5,3.6-4.1,6.4-4
	c4.1,0,6.7,2.7,6.7,6.8v14.1h-4.2v-13.1c0-2.7-1.4-4.2-3.9-4.2c-2.3,0-4.2,1.8-4.3,4.2c0,0.1,0,0.2,0,0.3v12.9H242v-13.4
	c0.2-2-1.3-3.8-3.3-3.9c-0.2,0-0.4,0-0.5,0c-2.4,0-4.3,2-4.3,4.3c0,0.1,0,0.2,0,0.3v12.7h-4.2L229.6,119.1z"/>
<g id="Layer_2_00000138553854520646606810000012156271018779627156_" class="st1">
	<g id="Layer_1-2">
		<path class="st2" d="M343.7,139.9c-6.9,0-12.5-5.6-12.5-12.5s5.6-12.5,12.5-12.5c2.1,0,4.2,0.5,6,1.5c1.8,1,3.3,2.4,4.3,4.1
			l-4.1,2.4c-0.6-1.1-1.5-1.9-2.5-2.5c-3.1-1.6-6.8-1.1-9.4,1.3c-1.5,1.5-2.2,3.6-2.1,5.7c-0.1,2.1,0.7,4.1,2.1,5.7
			c1.5,1.5,3.5,2.3,5.7,2.2c1.3,0,2.6-0.3,3.7-0.9c1.1-0.6,2-1.4,2.5-2.5l4.1,2.4c-1,1.7-2.5,3.2-4.3,4.1
			C347.8,139.4,345.8,139.9,343.7,139.9z"/>
		<path class="st2" d="M361.4,122.3v3c0.3-1,1.1-1.9,2-2.5c1-0.6,2.1-0.9,3.2-0.8v4.9c-1.3-0.2-2.6,0.1-3.6,0.8
			c-1.1,0.8-1.7,2.2-1.6,3.5v8.2H357v-17.2H361.4z"/>
		<path class="st2" d="M381.6,124.3v-2h4.4v17.2h-4.4v-2c-1.4,1.7-3.4,2.6-5.6,2.5c-2.2,0-4.4-0.9-5.9-2.6c-1.6-1.8-2.5-4.1-2.4-6.5
			c-0.1-2.4,0.8-4.7,2.4-6.4c1.5-1.7,3.6-2.7,5.9-2.7C378.1,121.7,380.2,122.6,381.6,124.3z M373.4,134.3c1.9,1.8,4.9,1.8,6.8,0
			c0.9-0.9,1.4-2.2,1.4-3.5c0.1-1.3-0.4-2.6-1.4-3.5c-1.9-1.8-4.9-1.8-6.8,0c-0.9,0.9-1.4,2.2-1.3,3.5
			C372,132.1,372.5,133.4,373.4,134.3z"/>
		<path class="st2" d="M399.2,115v4.2c-2.4-0.2-3.6,0.8-3.7,2.9v0.2h3.6v4.3h-3.6v12.9h-4.4v-12.9h-2.5v-4.2h2.5v-0.2
			c-0.2-2,0.6-4.1,2-5.5C394.5,115.3,396.6,114.8,399.2,115z"/>
		<path class="st2" d="M411.6,122.3v4.2h-3.9v7.1c0,0.5,0.1,1,0.5,1.3c0.4,0.3,0.8,0.5,1.3,0.5c0.7,0,1.4,0,2.1,0v4
			c-3,0.3-5.1,0.1-6.4-0.8s-1.9-2.5-1.9-4.9v-7.1h-3v-4.2h3v-3.5l4.4-1.3v4.8L411.6,122.3z"/>
		<path class="st2" d="M427.2,124.3v-2h4.4v17.2h-4.4v-2c-1.4,1.7-3.4,2.6-5.6,2.5c-2.2,0-4.4-0.9-5.9-2.6c-1.6-1.8-2.5-4.1-2.4-6.5
			c-0.1-2.4,0.8-4.7,2.4-6.4c1.5-1.7,3.6-2.7,5.9-2.7C423.8,121.7,425.9,122.6,427.2,124.3z M419.1,134.3c1.9,1.8,4.9,1.8,6.8,0
			c0.9-0.9,1.4-2.2,1.4-3.5c0-1.3-0.4-2.5-1.4-3.5c-1.9-1.8-4.9-1.8-6.8,0c-0.9,0.9-1.4,2.2-1.3,3.5
			C417.7,132.1,418.2,133.4,419.1,134.3L419.1,134.3z"/>
		<path class="st2" d="M440.1,122.3v3c0.4-1,1.1-1.9,2-2.5c1-0.6,2.1-0.9,3.2-0.8v4.9c-1.3-0.2-2.6,0.1-3.6,0.8
			c-1.1,0.8-1.7,2.2-1.6,3.5v8.2h-4.4v-17.2H440.1z"/>
		<path class="st2" d="M461.9,137.3c-3.6,3.6-9.3,3.6-12.9,0s-3.6-9.3,0-12.9l0,0c3.6-3.5,9.3-3.5,12.9,0.1c1.7,1.7,2.6,4,2.6,6.4
			C464.5,133.3,463.6,135.6,461.9,137.3z M452.1,134.3c1.9,1.8,4.8,1.8,6.7,0c1.8-1.9,1.8-4.9,0-6.8c-1.9-1.8-4.8-1.8-6.7,0
			C450.3,129.4,450.3,132.3,452.1,134.3L452.1,134.3z"/>
		<path class="st2" d="M320,137.6l-2.9-20.3c-0.4-2.7-2.7-4.7-5.5-4.7h-9c-0.3,0-0.5,0.2-0.7,0.4l-0.9,2H292l-0.9-2
			c-0.1-0.3-0.4-0.4-0.7-0.4h-9c-2.7,0-5.1,2-5.5,4.7l-2.9,20.3c-0.4,3,1.7,5.8,4.7,6.2c0,0,0,0,0,0l0,0c0.3,0,0.5,0.1,0.8,0.1h36
			c3,0,5.5-2.5,5.5-5.5l0,0C320,138.1,320,137.8,320,137.6z M287.1,130c-2.7,0-4.9-2.2-4.9-4.9c0-2.7,2.2-4.9,4.9-4.9
			c2.7,0,4.9,2.2,4.9,4.9c0,0,0,0,0,0l0,0C292,127.8,289.8,130,287.1,130z M296.5,138c-2.7,0-4.9-2.2-4.9-4.9h9.8
			C301.4,135.8,299.3,138,296.5,138L296.5,138L296.5,138z M305.9,130c-2.7,0-4.9-2.2-4.9-4.9c0-2.7,2.2-4.9,4.9-4.9
			c2.7,0,4.9,2.2,4.9,4.9c0,0,0,0,0,0l0,0C310.8,127.8,308.6,130,305.9,130L305.9,130z"/>
	</g>
</g>
<path class="st2" d="M133.1,19.2H9.7c-1.8,0-3.2-1.4-3.2-3.2V3.2C6.5,1.5,7.9,0,9.7,0h123.4c1.8,0,3.2,1.4,3.2,3.2V16
	C136.3,17.8,134.9,19.2,133.1,19.2"/>
<path class="st2" d="M23.6,36.7c-3.4,0-6.7,1.6-8.8,4.3c-2.9,3.6-4.1,8.3-3.2,12.8l9.2,51.9c1.2,6.6,6.2,11.4,12.1,11.4H110
	c5.8,0,10.9-4.8,12.1-11.4l9.2-51.9c0.8-4.5-0.4-9.2-3.3-12.8c-2.1-2.7-5.4-4.3-8.8-4.3H23.6z M110,128.3H32.8
	c-11.3,0-21-8.7-23.1-20.7L0.5,55.8c-1.5-7.8,0.6-15.9,5.7-22c4.3-5.2,10.7-8.3,17.4-8.3h95.6c6.8,0.1,13.1,3.1,17.4,8.3
	c5.1,6.1,7.2,14.2,5.7,22l-9.2,51.9C130.9,119.7,121.2,128.4,110,128.3"/>
<path class="st2" d="M120.8,23.8v-2.2c2,0,3.5-1.6,3.5-3.6c0-1.8-1.5-3.4-3.3-3.5H21.6c-2,0.1-3.5,1.8-3.4,3.7
	c0.1,1.8,1.5,3.3,3.4,3.4v2.2c-3.2-0.1-5.7-2.8-5.6-6c0.1-3,2.5-5.4,5.6-5.6h99.2c3.2-0.1,5.9,2.4,6,5.6s-2.4,5.9-5.6,6
	C121.1,23.8,121,23.8,120.8,23.8"/>
<path class="st2" d="M120.8,33.1H21.6c-3.2,0-5.8-2.6-5.8-5.8c0-3.2,2.6-5.8,5.8-5.8v2.2c-2,0.1-3.5,1.8-3.4,3.7
	c0.1,1.8,1.5,3.3,3.4,3.4h99.2c2,0.1,3.7-1.3,3.8-3.3c0.1-2-1.3-3.7-3.3-3.8c-0.1,0-0.2,0-0.3,0h-0.2v-2.2c3.2-0.1,5.9,2.4,6,5.6
	s-2.4,5.9-5.6,6C121.1,33.1,121,33.1,120.8,33.1"/>
<path class="st2" d="M21.6,21.5l36.1,1.1l-36.1,1.1V21.5z"/>
<path class="st2" d="M125.5,23.8l-45.1-1.1l45.1-1.1V23.8z"/>
<rect x="-2.5" y="-1.1" class="st3" width="571.3" height="131.4"/>
<path class="st2" d="M163.8,91.7l7.3-10.9c5.8,5.5,14.3,9.3,22.3,9.3c7.1,0,13.1-3.3,13.1-8.3c0-6-8.1-7.9-15.4-9.6
	c-13.7-3.2-24.8-9.8-24.8-22.3c0-12.7,11.1-21,27.1-21c10.7,0,19.4,3.7,24.7,8.9l-6.6,10.8c-4-3.9-11.2-6.9-18.3-6.9
	s-12.2,3.2-12.2,7.7c0,5.5,7.4,7.9,14.1,9.3s26.2,6.2,26.2,22.5c0,12.8-12.2,21.6-27.8,21.6C182.6,102.8,171.1,98.4,163.8,91.7z"/>
<path class="st2" d="M281.7,80.1h-40.9c1.9,6.6,7.5,10.9,15.1,10.9c5.6,0.1,10.9-2.3,14.5-6.5l9,7.9c-5.5,6.5-14,10.5-23.9,10.5
	c-16.8,0-29.3-12-29.3-27.8c0-15.6,12.1-27.4,28-27.4S282,59.4,282,75.3C282,76.9,281.9,78.5,281.7,80.1z M240.8,70.3h26.9
	c-1.7-6.6-6.9-10.9-13.4-10.9C247.7,59.4,242.5,63.8,240.8,70.3L240.8,70.3z"/>
<path class="st2" d="M321.3,48v13.9h-2.3c-9.6,0-15.2,5.7-15.2,14.7v25h-13.4V48.9h13.5v6.8c3.6-4.8,9.2-7.7,15.2-7.7L321.3,48z"/>
<path class="st2" d="M381.9,48.9L360,101.6h-13.9l-21.9-52.8h15.3l13.8,35.9L367,48.9H381.9z"/>
<path class="st2" d="M437.1,80.1h-40.9c1.9,6.6,7.5,10.9,15.1,10.9c5.6,0.1,10.9-2.3,14.5-6.5l9,7.9c-5.5,6.5-14,10.5-23.9,10.5
	c-16.8,0-29.3-12-29.3-27.8c0-15.6,12.1-27.4,28-27.4s27.7,11.8,27.7,27.7C437.4,76.9,437.3,78.5,437.1,80.1z M396.1,70.3H423
	c-1.7-6.6-6.9-10.9-13.4-10.9S397.7,63.8,396.1,70.3L396.1,70.3z"/>
<path class="st2" d="M476.7,48v13.9h-2.2c-9.6,0-15.2,5.7-15.2,14.7v25h-13.5V48.9h13.5v6.8c3.6-4.8,9.2-7.7,15.2-7.7L476.7,48z"/>
<linearGradient id="SVGID_1_" gradientUnits="userSpaceOnUse" x1="870.0443" y1="434.2369" x2="907.1767" y2="465.2789" gradientTransform="matrix(1 0 0 1 -374.6 -381.3801)">
	<stop  offset="0" style="stop-color:#FEAF6F"/>
	<stop  offset="1" style="stop-color:#FD5E83"/>
</linearGradient>
<path class="st4" d="M492.5,100.6V87c3.2,1.4,6.6,2.1,10,2.2c7.3,0,11.8-3.9,11.8-10.9v-48h14.3V79c0,15-9.8,23.9-24.5,23.9
	C500,102.9,496.1,102.1,492.5,100.6z"/>
<linearGradient id="SVGID_00000162328622213414588160000008200821717462734513_" gradientUnits="userSpaceOnUse" x1="920.7661" y1="434.5518" x2="972.3098" y2="477.6348" gradientTransform="matrix(1 0 0 1 -374.6 -381.3801)">
	<stop  offset="0" style="stop-color:#FEAF6F"/>
	<stop  offset="1" style="stop-color:#FD5E83"/>
</linearGradient>
<path style="fill:url(#SVGID_00000162328622213414588160000008200821717462734513_);" d="M593.2,48.9v52.8h-13.5v-6.3
	c-4.4,4.9-10.6,7.6-17.2,7.5c-14.7,0-25.8-11.9-25.8-27.6s11.1-27.6,25.8-27.6c6.5-0.1,12.8,2.7,17.2,7.5v-6.3L593.2,48.9z
	 M579.8,75.2c0-8-6.6-14.5-14.6-14.5c-8,0-14.5,6.6-14.5,14.6c0,8,6.5,14.4,14.5,14.5c7.9,0.2,14.4-6,14.6-13.9
	C579.8,75.7,579.8,75.5,579.8,75.2z"/>
<linearGradient id="SVGID_00000026849485640012965730000014957007722205225107_" gradientUnits="userSpaceOnUse" x1="973.2171" y1="437.9167" x2="1007.0711" y2="466.2133" gradientTransform="matrix(1 0 0 1 -374.6 -381.3801)">
	<stop  offset="0" style="stop-color:#FEAF6F"/>
	<stop  offset="1" style="stop-color:#FD5E83"/>
</linearGradient>
<path style="fill:url(#SVGID_00000026849485640012965730000014957007722205225107_);" d="M635.9,48v13.9h-2.3
	c-9.6,0-15.2,5.7-15.2,14.7v25H605V48.9h13.4v6.8c3.6-4.8,9.2-7.7,15.2-7.7L635.9,48z"/>
<linearGradient id="SVGID_00000011000279650532451330000005619277557075874698_" gradientUnits="userSpaceOnUse" x1="1015.3561" y1="439.477" x2="1056.9301" y2="474.2302" gradientTransform="matrix(1 0 0 1 -374.6 -381.3801)">
	<stop  offset="0" style="stop-color:#FEAF6F"/>
	<stop  offset="1" style="stop-color:#FD5E83"/>
</linearGradient>
<path style="fill:url(#SVGID_00000011000279650532451330000005619277557075874698_);" d="M638.7,94.8l6.5-8.9
	c4.2,3.8,9.7,5.9,15.4,5.9c5.4,0,9.3-1.8,9.3-5c0-3.5-4.6-4.8-10.3-6.1c-8.4-1.9-19.2-4.5-19.2-16.5c0-11.2,9.8-16.7,21.5-16.7
	c7.4-0.1,14.6,2.3,20.5,6.9l-6.5,9c-3.9-3.1-8.7-4.8-13.7-4.9c-4.6,0-8.3,1.5-8.3,4.5c0,3.5,4.4,4.7,10.3,5.9
	c8.4,1.9,19.2,4.5,19.2,16.4c0,11.2-9.9,17.3-22.6,17.3C652.9,102.9,644.9,100.1,638.7,94.8z"/>
<linearGradient id="SVGID_00000176732902084481618460000012775063734620060048_" gradientUnits="userSpaceOnUse" x1="408.7259" y1="431.5905" x2="485.4144" y2="495.6844" gradientTransform="matrix(1 0 0 1 -374.6 -381.3801)">
	<stop  offset="0" style="stop-color:#FEAF6F"/>
	<stop  offset="1" style="stop-color:#FD5E83"/>
</linearGradient>
<path style="fill-rule:evenodd;clip-rule:evenodd;fill:url(#SVGID_00000176732902084481618460000012775063734620060048_);" d="
	M124.5,62c-12.7,0.9-27,5.5-35.7,12.3c-38.7,30.3-69.2-6.6-69.3-6.6l6.8,36.8c0.8,4.3,4.6,7.5,9,7.5l73,0.2c4.5,0,8.3-3.2,9.1-7.6
	L124.5,62z"/>
</svg>
