<svg id="Layer_1" data-name="Layer 1" xmlns="http://www.w3.org/2000/svg" xmlns:xlink="http://www.w3.org/1999/xlink" viewBox="0 0 142.71 128.36"><defs><style>.cls-1{fill:#fff;}.cls-2{fill-rule:evenodd;fill:url(#linear-gradient);}</style><linearGradient id="linear-gradient" x1="408.73" y1="431.59" x2="485.41" y2="495.68" gradientTransform="translate(-374.6 -381.38)" gradientUnits="userSpaceOnUse"><stop offset="0" stop-color="#feaf6f"/><stop offset="1" stop-color="#fd5e83"/></linearGradient></defs><path class="cls-1" d="M133.09,19.17H9.67A3.24,3.24,0,0,1,6.46,16V3.24A3.24,3.24,0,0,1,9.7,0H133.09a3.25,3.25,0,0,1,3.25,3.24V16a3.25,3.25,0,0,1-3.25,3.24"/><path class="cls-1" d="M23.61,36.67A11.41,11.41,0,0,0,14.8,41a15.79,15.79,0,0,0-3.25,12.8l9.18,51.92c1.17,6.62,6.25,11.42,12.06,11.42H110c5.82,0,10.89-4.8,12.06-11.42l9.18-51.91A15.86,15.86,0,0,0,128,41a11.5,11.5,0,0,0-8.82-4.33ZM110,128.35H32.8c-11.27,0-21-8.7-23.12-20.69L.46,55.75a26.72,26.72,0,0,1,5.71-22,22.77,22.77,0,0,1,17.41-8.34h95.56a22.8,22.8,0,0,1,17.41,8.34,26.79,26.79,0,0,1,5.71,22l-9.19,51.91c-2.12,12-11.84,20.7-23.12,20.7"/><path class="cls-1" d="M120.8,23.76V21.51A3.56,3.56,0,0,0,121,14.4H21.59a3.56,3.56,0,0,0,0,7.11v2.25a5.81,5.81,0,0,1,0-11.61H120.8a5.81,5.81,0,0,1,.48,11.61h-.48"/><path class="cls-1" d="M120.8,33.11H21.59a5.8,5.8,0,0,1,0-11.6v2.24a3.56,3.56,0,0,0,0,7.11H120.8a3.56,3.56,0,0,0,.52-7.1h-.52V21.51a5.81,5.81,0,0,1,.48,11.61,3.84,3.84,0,0,1-.48,0"/><path class="cls-1" d="M21.59,21.51l36.13,1.13L21.59,23.76Z"/><path class="cls-1" d="M125.46,23.76,80.35,22.64l45.11-1.13Z"/><path class="cls-2" d="M124.46,62c-12.72.93-27,5.55-35.7,12.34-38.69,30.34-69.25-6.6-69.28-6.58l6.75,36.83a9.16,9.16,0,0,0,9,7.52l73,.16a9.17,9.17,0,0,0,9.06-7.64Z"/></svg>